CalSansUI-Medium.ufo
<glyph name="quotesingle" format="2">
  <advance width="184.9"/>
  <unicode hex="0027"/>
  <outline>
    <contour>
      <point x="32.075" y="700.0" type="line"/>
      <point x="62.199999999999996" y="415.325" type="line"/>
      <point x="121.7" y="415.325" type="line"/>
      <point x="152.825" y="700.0" type="line"/>
    </contour>
  </outline>
</glyph>
<glyph name="comma" format="2">
  <advance width="239.05"/>
  <unicode hex="002C"/>
  <outline>
    <contour>
      <point x="83.675" y="132.95" type="line"/>
      <point x="78.15" y="64.725" type="line" smooth="yes"/>
      <point x="69.525" y="-32.85"/>
      <point x="43.775" y="-103.17500000000001"/>
      <point x="13.499999999999998" y="-160.2" type="curve"/>
      <point x="51.8" y="-182.375" type="line"/>
      <point x="121.30000000000001" y="-121.42500000000001"/>
      <point x="156.0" y="-44.15"/>
      <point x="175.625" y="63.3" type="curve" smooth="yes"/>
      <point x="186.575" y="123.9" type="line"/>
    </contour>
  </outline>
</glyph>
<glyph name="one" format="2">
  <advance width="327.4"/>
  <unicode hex="0031"/>
  <outline>
    <contour>
      <point x="135.125" y="0.0" type="line"/>
      <point x="243.875" y="0.0" type="line"/>
      <point x="243.875" y="713.0" type="line"/>
      <point x="3.4499999999999997" y="614.4749999999999" type="line"/>
      <point x="42.85" y="517.7750000000001" type="line"/>
      <point x="132.175" y="555.2" type="line"/>
      <point x="135.125" y="551.725" type="line"/>
    </contour>
  </outline>
</glyph>
<glyph name="C" format="2">
  <advance width="685.325"/>
  <unicode hex="0043"/>
  <anchor x="402.8" y="0.0" name="bottom"/>
  <anchor x="505.8" y="0.0" name="ogonek"/>
  <anchor x="402.8" y="700.0" name="top"/>
  <outline>
    <contour>
      <point x="402.8" y="-13.0" type="curve" smooth="yes"/>
      <point x="520.5999999999999" y="-13.0"/>
      <point x="607.175" y="32.325"/>
      <point x="663.85" y="101.05000000000001" type="curve"/>
      <point x="583.425" y="169.525" type="line"/>
      <point x="538.125" y="118.65"/>
      <point x="481.075" y="92.45"/>
      <point x="405.8" y="92.45" type="curve" smooth="yes"/>
      <point x="260.025" y="92.45"/>
      <point x="155.075" y="200.52499999999998"/>
      <point x="155.075" y="349.0" type="curve" smooth="yes"/>
      <point x="155.075" y="496.95"/>
      <point x="254.775" y="607.55"/>
      <point x="402.8" y="607.55" type="curve" smooth="yes"/>
      <point x="476.9" y="607.55"/>
      <point x="533.9749999999999" y="584.125"/>
      <point x="580.7" y="529.625" type="curve"/>
      <point x="660.2249999999999" y="602.05" type="line"/>
      <point x="595.8" y="678.4749999999999"/>
      <point x="506.95000000000005" y="713.0"/>
      <point x="402.8" y="713.0" type="curve" smooth="yes"/>
      <point x="193.1" y="713.0"/>
      <point x="41.475" y="551.575"/>
      <point x="41.475" y="349.0" type="curve" smooth="yes"/>
      <point x="41.475" y="146.89999999999998"/>
      <point x="197.95" y="-13.0"/>
    </contour>
  </outline>
</glyph>
<glyph name="D" format="2">
  <advance width="723.4"/>
  <unicode hex="0044"/>
  <anchor x="333.25" y="0.0" name="bottom"/>
  <anchor x="138.45" y="349.0" name="center"/>
  <anchor x="351.25" y="700.0" name="top"/>
  <outline>
    <contour>
      <point x="81.05000000000001" y="0.0" type="line"/>
      <point x="302.925" y="0.0" type="line" smooth="yes"/>
      <point x="526.775" y="0.0"/>
      <point x="681.925" y="134.75"/>
      <point x="681.925" y="349.0" type="curve" smooth="yes"/>
      <point x="681.925" y="565.25"/>
      <point x="526.775" y="700.0"/>
      <point x="302.925" y="700.0" type="curve" smooth="yes"/>
      <point x="81.05000000000001" y="700.0" type="line"/>
    </contour>
    <contour>
      <point x="190.60000000000002" y="104.025" type="line"/>
      <point x="190.60000000000002" y="595.975" type="line"/>
      <point x="302.6" y="595.975" type="line" smooth="yes"/>
      <point x="465.04999999999995" y="595.975"/>
      <point x="569.9" y="511.7"/>
      <point x="569.9" y="349.0" type="curve" smooth="yes"/>
      <point x="569.9" y="187.3"/>
      <point x="465.04999999999995" y="104.025"/>
      <point x="302.6" y="104.025" type="curve" smooth="yes"/>
    </contour>
  </outline>
</glyph>
<glyph name="M" format="2">
  <advance width="934.875"/>
  <unicode hex="004D"/>
  <anchor x="468.125" y="0.0" name="bottom"/>
  <anchor x="745.175" y="0.0" name="ogonek"/>
  <anchor x="468.70000000000005" y="700.0" name="top"/>
  <outline>
    <contour>
      <point x="81.05000000000001" y="0.0" type="line"/>
      <point x="189.7" y="0.0" type="line"/>
      <point x="189.7" y="331.825" type="line" smooth="yes"/>
      <point x="189.7" y="440.35"/>
      <point x="186.225" y="504.82500000000005"/>
      <point x="178.325" y="547.825" type="curve"/>
      <point x="182.325" y="547.825" type="line"/>
      <point x="440.525" y="0.0" type="line"/>
      <point x="494.875" y="0.0" type="line"/>
      <point x="752.025" y="547.825" type="line"/>
      <point x="756.0250000000001" y="547.825" type="line"/>
      <point x="748.6500000000001" y="508.34999999999997"/>
      <point x="745.175" y="442.825"/>
      <point x="745.175" y="331.825" type="curve" smooth="yes"/>
      <point x="745.175" y="0.0" type="line"/>
      <point x="853.825" y="0.0" type="line"/>
      <point x="853.825" y="700.0" type="line"/>
      <point x="716.2249999999999" y="700.0" type="line"/>
      <point x="547.175" y="346.375" type="line" smooth="yes"/>
      <point x="503.65" y="254.85000000000002"/>
      <point x="480.175" y="198.375"/>
      <point x="472.17499999999995" y="163.475" type="curve"/>
      <point x="468.175" y="163.475" type="line"/>
      <point x="460.175" y="198.9"/>
      <point x="435.175" y="255.375"/>
      <point x="392.17499999999995" y="346.375" type="curve" smooth="yes"/>
      <point x="224.65" y="700.0" type="line"/>
      <point x="81.05000000000001" y="700.0" type="line"/>
    </contour>
  </outline>
</glyph>
<glyph name="R" format="2">
  <advance width="603.175"/>
  <unicode hex="0052"/>
  <anchor x="313.04999999999995" y="0.0" name="bottom"/>
  <anchor x="446.725" y="0.0" name="ogonek"/>
  <anchor x="288.04999999999995" y="700.0" name="top"/>
  <outline>
    <contour>
      <point x="81.05000000000001" y="0.0" type="line"/>
      <point x="190.60000000000002" y="0.0" type="line"/>
      <point x="190.60000000000002" y="292.55" type="line"/>
      <point x="260.85" y="292.55" type="line"/>
      <point x="272.525" y="266.5"/>
      <point x="284.04999999999995" y="246.975"/>
      <point x="294.575" y="230.925" type="curve" smooth="yes"/>
      <point x="446.725" y="0.0" type="line"/>
      <point x="578.125" y="0.0" type="line"/>
      <point x="379.5" y="302.875" type="line"/>
      <point x="478.825" y="319.625"/>
      <point x="555.375" y="386.05"/>
      <point x="555.375" y="496.825" type="curve" smooth="yes"/>
      <point x="555.375" y="626.45"/>
      <point x="453.075" y="700.0"/>
      <point x="317.525" y="700.0" type="curve" smooth="yes"/>
      <point x="81.05000000000001" y="700.0" type="line"/>
    </contour>
    <contour>
      <point x="190.60000000000002" y="394.2" type="line"/>
      <point x="190.60000000000002" y="595.975" type="line"/>
      <point x="301.25" y="595.975" type="line" smooth="yes"/>
      <point x="390.6" y="595.975"/>
      <point x="442.775" y="569.675"/>
      <point x="442.775" y="496.34999999999997" type="curve" smooth="yes"/>
      <point x="442.775" y="420.975"/>
      <point x="390.6" y="394.2"/>
      <point x="301.25" y="394.2" type="curve" smooth="yes"/>
    </contour>
  </outline>
</glyph>
<glyph name="U" format="2">
  <advance width="701.275"/>
  <unicode hex="0055"/>
  <anchor x="350.375" y="0.0" name="bottom"/>
  <anchor x="358.29999999999995" y="0.0" name="ogonek"/>
  <anchor x="350.375" y="684.0" name="top"/>
  <anchor x="350.375" y="647.0" name="top_ring"/>
  <anchor x="641.375" y="700.0" name="topright"/>
  <outline>
    <contour>
      <point x="350.375" y="-13.0" type="curve" smooth="yes"/>
      <point x="521.375" y="-13.0"/>
      <point x="630.2249999999999" y="99.525"/>
      <point x="630.2249999999999" y="262.675" type="curve" smooth="yes"/>
      <point x="630.2249999999999" y="700.0" type="line"/>
      <point x="519.625" y="700.0" type="line"/>
      <point x="519.625" y="268.75" type="line" smooth="yes"/>
      <point x="519.625" y="154.525"/>
      <point x="460.54999999999995" y="89.175"/>
      <point x="350.375" y="89.175" type="curve" smooth="yes"/>
      <point x="240.725" y="89.175"/>
      <point x="181.65" y="155.575"/>
      <point x="181.65" y="272.425" type="curve" smooth="yes"/>
      <point x="181.65" y="700.0" type="line"/>
      <point x="71.05000000000001" y="700.0" type="line"/>
      <point x="71.05000000000001" y="259.0" type="line" smooth="yes"/>
      <point x="71.05000000000001" y="99.525"/>
      <point x="179.375" y="-13.0"/>
    </contour>
  </outline>
</glyph>
<glyph name="m" format="2">
  <advance width="902.7"/>
  <unicode hex="006D"/>
  <anchor x="453.625" y="0.0" name="bottom"/>
  <anchor x="730.5250000000001" y="0.0" name="ogonek"/>
  <anchor x="459.725" y="497.125" name="top"/>
  <outline>
    <contour>
      <point x="71.05000000000001" y="0.0" type="line"/>
      <point x="177.175" y="0.0" type="line"/>
      <point x="177.175" y="298.925" type="line" smooth="yes"/>
      <point x="177.175" y="369.6"/>
      <point x="220.95" y="414.75"/>
      <point x="289.875" y="414.75" type="curve" smooth="yes"/>
      <point x="364.95" y="414.75"/>
      <point x="403.95000000000005" y="369.6"/>
      <point x="403.95000000000005" y="298.925" type="curve" smooth="yes"/>
      <point x="403.95000000000005" y="0.0" type="line"/>
      <point x="510.07500000000005" y="0.0" type="line"/>
      <point x="510.07500000000005" y="302.6" type="line" smooth="yes"/>
      <point x="510.07500000000005" y="371.175"/>
      <point x="552.85" y="414.75"/>
      <point x="620.775" y="414.75" type="curve" smooth="yes"/>
      <point x="688.2249999999999" y="414.75"/>
      <point x="730.5250000000001" y="369.6"/>
      <point x="730.5250000000001" y="298.925" type="curve" smooth="yes"/>
      <point x="730.5250000000001" y="0.0" type="line"/>
      <point x="836.6500000000001" y="0.0" type="line"/>
      <point x="836.6500000000001" y="324.575" type="line" smooth="yes"/>
      <point x="836.6500000000001" y="430.325"/>
      <point x="755.65" y="510.125"/>
      <point x="647.6" y="510.125" type="curve" smooth="yes"/>
      <point x="572.925" y="510.125"/>
      <point x="508.45" y="476.6"/>
      <point x="481.75" y="424.075" type="curve"/>
      <point x="475.75" y="424.075" type="line"/>
      <point x="450.375" y="476.6"/>
      <point x="392.9" y="510.125"/>
      <point x="324.7" y="510.125" type="curve" smooth="yes"/>
      <point x="263.6" y="510.125"/>
      <point x="206.6" y="479.65"/>
      <point x="179.175" y="430.175" type="curve"/>
      <point x="173.175" y="430.175" type="line"/>
      <point x="173.175" y="497.125" type="line"/>
      <point x="71.05000000000001" y="497.125" type="line"/>
    </contour>
  </outline>
</glyph>
<glyph name="q" format="2">
  <advance width="626.15"/>
  <unicode hex="0071"/>
  <anchor x="402.04999999999995" y="-115.5" name="bottom"/>
  <anchor x="355.7" y="0.0" name="ogonek"/>
  <anchor x="288.65" y="497.125" name="top"/>
  <outline>
    <contour>
      <point x="285.275" y="-13.0" type="curve" smooth="yes"/>
      <point x="361.15" y="-13.0"/>
      <point x="424.0" y="27.825000000000003"/>
      <point x="447.725" y="84.5" type="curve"/>
      <point x="453.725" y="84.5" type="line"/>
      <point x="453.725" y="-220.0" type="line"/>
      <point x="559.8499999999999" y="-220.0" type="line"/>
      <point x="559.8499999999999" y="497.125" type="line"/>
      <point x="458.2" y="497.125" type="line"/>
      <point x="458.2" y="413.25" type="line"/>
      <point x="452.2" y="413.25" type="line"/>
      <point x="428.475" y="469.825"/>
      <point x="364.575" y="510.125"/>
      <point x="285.275" y="510.125" type="curve" smooth="yes"/>
      <point x="141.0" y="510.125"/>
      <point x="37.900000000000006" y="394.575"/>
      <point x="37.900000000000006" y="247.79999999999998" type="curve" smooth="yes"/>
      <point x="37.900000000000006" y="101.5"/>
      <point x="141.0" y="-13.0"/>
    </contour>
    <contour>
      <point x="299.92499999999995" y="84.275" type="curve" smooth="yes"/>
      <point x="206.225" y="84.275"/>
      <point x="144.025" y="154.725"/>
      <point x="144.025" y="248.8" type="curve" smooth="yes"/>
      <point x="144.025" y="343.45000000000005"/>
      <point x="206.225" y="412.85"/>
      <point x="299.92499999999995" y="412.85" type="curve" smooth="yes"/>
      <point x="392.05" y="412.85"/>
      <point x="454.25" y="342.4"/>
      <point x="454.25" y="247.79999999999998" type="curve" smooth="yes"/>
      <point x="454.25" y="155.77499999999998"/>
      <point x="392.05" y="84.275"/>
    </contour>
  </outline>
</glyph>
<glyph name="u" format="2">
  <advance width="571.8499999999999"/>
  <unicode hex="0075"/>
  <anchor x="278.15" y="0.0" name="bottom"/>
  <anchor x="397.625" y="0.0" name="ogonek"/>
  <anchor x="282.925" y="497.125" name="top"/>
  <anchor x="491.3" y="497.125" name="topright"/>
  <outline>
    <contour>
      <point x="245.625" y="-12.524999999999999" type="curve" smooth="yes"/>
      <point x="319.725" y="-12.524999999999999"/>
      <point x="367.575" y="27.475"/>
      <point x="392.67499999999995" y="69.725" type="curve"/>
      <point x="398.675" y="69.725" type="line"/>
      <point x="398.675" y="0.0" type="line"/>
      <point x="500.8" y="0.0" type="line"/>
      <point x="500.8" y="497.125" type="line"/>
      <point x="394.675" y="497.125" type="line"/>
      <point x="394.675" y="203.97500000000002" type="line" smooth="yes"/>
      <point x="394.675" y="129.1"/>
      <point x="347.225" y="82.375"/>
      <point x="277.575" y="82.375" type="curve" smooth="yes"/>
      <point x="214.85" y="82.375"/>
      <point x="172.175" y="129.1"/>
      <point x="172.175" y="203.97500000000002" type="curve" smooth="yes"/>
      <point x="172.175" y="497.125" type="line"/>
      <point x="66.05000000000001" y="497.125" type="line"/>
      <point x="66.05000000000001" y="178.85000000000002" type="line" smooth="yes"/>
      <point x="66.05000000000001" y="64.7"/>
      <point x="147.325" y="-12.524999999999999"/>
    </contour>
  </outline>
</glyph>
<glyph name="z" format="2">
  <advance width="537.925"/>
  <unicode hex="007A"/>
  <anchor x="266.875" y="0.0" name="bottom"/>
  <anchor x="484.875" y="0.0" name="ogonek"/>
  <anchor x="266.875" y="497.125" name="top"/>
  <outline>
    <contour>
      <point x="45.05" y="0.0" type="line"/>
      <point x="484.875" y="0.0" type="line"/>
      <point x="484.875" y="94.80000000000001" type="line"/>
      <point x="219.89999999999998" y="94.80000000000001" type="line"/>
      <point x="219.89999999999998" y="96.8" type="line"/>
      <point x="231.47500000000002" y="105.375"/>
      <point x="238.57500000000002" y="115.0"/>
      <point x="256.1" y="140.47500000000002" type="curve" smooth="yes"/>
      <point x="488.875" y="482.125" type="line"/>
      <point x="488.875" y="497.125" type="line"/>
      <point x="55.05" y="497.125" type="line"/>
      <point x="55.05" y="402.32500000000005" type="line"/>
      <point x="317.025" y="402.32500000000005" type="line"/>
      <point x="317.025" y="400.325" type="line"/>
      <point x="304.975" y="391.275"/>
      <point x="295.875" y="379.125"/>
      <point x="276.825" y="351.65" type="curve" smooth="yes"/>
      <point x="45.05" y="15.0" type="line"/>
    </contour>
  </outline>
</glyph>
<glyph name="plusminus" format="2">
  <advance width="596.0"/>
  <unicode hex="00B1"/>
  <outline>
    <contour>
      <point x="68.67500000000001" y="376.975" type="line"/>
      <point x="520.675" y="376.975" type="line"/>
      <point x="520.675" y="467.025" type="line"/>
      <point x="68.67500000000001" y="467.025" type="line"/>
    </contour>
    <contour>
      <point x="68.67500000000001" y="90.975" type="line"/>
      <point x="520.675" y="90.975" type="line"/>
      <point x="520.675" y="181.02499999999998" type="line"/>
      <point x="68.67500000000001" y="181.02499999999998" type="line"/>
    </contour>
    <contour>
      <point x="245.60000000000002" y="234.0" type="line"/>
      <point x="343.75" y="234.0" type="line"/>
      <point x="343.75" y="610.0" type="line"/>
      <point x="245.60000000000002" y="610.0" type="line"/>
    </contour>
  </outline>
</glyph>
<glyph name="AE" format="2">
  <advance width="1002.5"/>
  <unicode hex="00C6"/>
  <anchor x="583.05" y="0.0" name="bottom"/>
  <anchor x="866.5" y="0.0" name="ogonek"/>
  <anchor x="583.05" y="700.0" name="top"/>
  <anchor x="562.625" y="700.0" name="top_ring"/>
  <outline>
    <contour>
      <point x="12.05" y="0.0" type="line"/>
      <point x="145.2" y="0.0" type="line"/>
      <point x="254.975" y="171.77499999999998" type="line"/>
      <point x="274.45" y="207.52499999999998" type="line"/>
      <point x="444.65" y="473.875" type="line" smooth="yes"/>
      <point x="479.04999999999995" y="526.85"/>
      <point x="505.425" y="569.55"/>
      <point x="523.8" y="610.875" type="curve"/>
      <point x="497.525" y="596.5" type="line"/>
      <point x="617.4" y="596.5" type="line"/>
      <point x="577.5" y="700.0" type="line"/>
      <point x="476.35" y="700.0" type="line"/>
    </contour>
    <contour>
      <point x="188.47500000000002" y="145.075" type="line"/>
      <point x="597.75" y="145.075" type="line"/>
      <point x="597.75" y="249.10000000000002" type="line"/>
      <point x="213.15" y="249.10000000000002" type="line"/>
    </contour>
    <component base="E" xOffset="447.275"/>
  </outline>
</glyph>
<glyph name="lslash" format="2">
  <advance width="260.1"/>
  <unicode hex="0142"/>
  <anchor x="129.575" y="0.0" name="bottom"/>
  <anchor x="129.575" y="393.0" name="center"/>
  <anchor x="182.39999999999998" y="0.0" name="ogonek"/>
  <anchor x="130.05" y="700.0" name="top"/>
  <anchor x="232.875" y="700.0" name="topright"/>
  <outline>
    <contour>
      <point x="1.9" y="258.75" type="line"/>
      <point x="123.10000000000001" y="337.3" type="line"/>
      <point x="133.575" y="337.3" type="line"/>
      <point x="257.725" y="417.32500000000005" type="line"/>
      <point x="257.725" y="516.5999999999999" type="line"/>
      <point x="133.575" y="436.57500000000005" type="line"/>
      <point x="123.10000000000001" y="436.57500000000005" type="line"/>
      <point x="1.9" y="358.025" type="line"/>
    </contour>
    <component base="l" xOffset="5.225"/>
  </outline>
</glyph>
<glyph name="brevebelowcomb" format="2">
  <unicode hex="032E"/>
  <anchor x="0.0" y="0.0" name="_bottom"/>
  <outline>
    <contour>
      <point x="0.0" y="-220.0" type="curve" smooth="yes"/>
      <point x="89.025" y="-220.0"/>
      <point x="146.875" y="-158.475"/>
      <point x="146.875" y="-72.725" type="curve"/>
      <point x="66.30000000000001" y="-72.725" type="line"/>
      <point x="67.825" y="-118.625"/>
      <point x="45.875" y="-158.075"/>
      <point x="0.0" y="-158.075" type="curve" smooth="yes"/>
      <point x="-44.3" y="-158.075"/>
      <point x="-67.825" y="-118.625"/>
      <point x="-66.30000000000001" y="-72.725" type="curve"/>
      <point x="-146.875" y="-72.725" type="line"/>
      <point x="-146.875" y="-158.475"/>
      <point x="-88.55" y="-220.0"/>
    </contour>
  </outline>
</glyph>
<glyph name="Xi" format="2">
  <advance width="544.225"/>
  <unicode hex="039E"/>
  <outline>
    <contour>
      <point x="70.05" y="0.0" type="line"/>
      <point x="474.175" y="0.0" type="line"/>
      <point x="474.175" y="104.025" type="line"/>
      <point x="70.05" y="104.025" type="line"/>
    </contour>
    <contour>
      <point x="75.05" y="303.275" type="line"/>
      <point x="467.17499999999995" y="303.275" type="line"/>
      <point x="467.17499999999995" y="407.3" type="line"/>
      <point x="75.05" y="407.3" type="line"/>
    </contour>
    <contour>
      <point x="70.05" y="595.975" type="line"/>
      <point x="472.17499999999995" y="595.975" type="line"/>
      <point x="472.17499999999995" y="700.0" type="line"/>
      <point x="70.05" y="700.0" type="line"/>
    </contour>
  </outline>
</glyph>
<glyph name="dagger" format="2">
  <advance width="407.5"/>
  <unicode hex="2020"/>
  <outline>
    <contour>
      <point x="159.25" y="301.0" type="line"/>
      <point x="248.25" y="301.0" type="line"/>
      <point x="248.25" y="753.0" type="line"/>
      <point x="159.25" y="753.0" type="line"/>
    </contour>
    <contour>
      <point x="59.0" y="572.5" type="line"/>
      <point x="348.5" y="572.5" type="line"/>
      <point x="348.5" y="656.5" type="line"/>
      <point x="59.0" y="656.5" type="line"/>
    </contour>
  </outline>
</glyph>
<glyph name="daggerdbl" format="2">
  <advance width="407.5"/>
  <unicode hex="2021"/>
  <outline>
    <contour>
      <point x="159.25" y="301.0" type="line"/>
      <point x="248.25" y="301.0" type="line"/>
      <point x="248.25" y="753.0" type="line"/>
      <point x="159.25" y="753.0" type="line"/>
    </contour>
    <contour>
      <point x="59.0" y="396.5" type="line"/>
      <point x="348.5" y="396.5" type="line"/>
      <point x="348.5" y="480.5" type="line"/>
      <point x="59.0" y="480.5" type="line"/>
    </contour>
    <contour>
      <point x="59.0" y="573.5" type="line"/>
      <point x="348.5" y="573.5" type="line"/>
      <point x="348.5" y="657.5" type="line"/>
      <point x="59.0" y="657.5" type="line"/>
    </contour>
  </outline>
</glyph>
<glyph name="dong" format="2">
  <advance width="587.9000000000001"/>
  <unicode hex="20AB"/>
  <anchor x="285.17499999999995" y="42.66637" name="_bar"/>
  <outline>
    <contour>
      <point x="267.25" y="101.275" type="curve" smooth="yes"/>
      <point x="333.775" y="101.275"/>
      <point x="376.25" y="130.875"/>
      <point x="405.75" y="185.275" type="curve"/>
      <point x="411.75" y="185.275" type="line"/>
      <point x="411.75" y="111.275" type="line"/>
      <point x="513.875" y="111.275" type="line"/>
      <point x="513.875" y="700.0" type="line"/>
      <point x="407.75" y="700.0" type="line"/>
      <point x="407.75" y="453.325" type="line"/>
      <point x="401.225" y="453.325" type="line"/>
      <point x="373.29999999999995" y="507.04999999999995"/>
      <point x="329.25" y="536.7"/>
      <point x="267.25" y="536.7" type="curve" smooth="yes"/>
      <point x="141.825" y="536.7"/>
      <point x="50.0" y="447.225"/>
      <point x="50.0" y="315.85" type="curve" smooth="yes"/>
      <point x="50.0" y="190.225"/>
      <point x="141.825" y="101.275"/>
    </contour>
    <contour>
      <point x="281.025" y="191.7" type="curve" smooth="yes"/>
      <point x="212.9" y="191.7"/>
      <point x="156.125" y="241.3"/>
      <point x="156.125" y="316.85" type="curve" smooth="yes"/>
      <point x="156.125" y="396.67499999999995"/>
      <point x="212.9" y="446.275"/>
      <point x="281.025" y="446.275" type="curve" smooth="yes"/>
      <point x="355.45" y="446.275"/>
      <point x="408.275" y="394.575"/>
      <point x="408.275" y="315.85" type="curve" smooth="yes"/>
      <point x="408.275" y="242.875"/>
      <point x="355.45" y="191.7"/>
    </contour>
    <component base="strokeshortcomb" xScale="1.3967575" yScale="0.86187" xOffset="285.17499999999995" yOffset="-259.85"/>
    <component base="strokeshortcomb" xScale="0.8001075" yScale="0.8617275" xOffset="430.925" yOffset="303.42499999999995"/>
  </outline>
</glyph>
<glyph name="peso" format="2">
  <advance width="610.075"/>
  <unicode hex="20B1"/>
  <outline>
    <contour>
      <point x="95.75" y="30.0" type="line"/>
      <point x="205.3" y="30.0" type="line"/>
      <point x="205.3" y="213.375" type="line"/>
      <point x="284.95" y="213.375" type="line" smooth="yes"/>
      <point x="425.725" y="213.375"/>
      <point x="534.325" y="290.275"/>
      <point x="534.325" y="442.0" type="curve" smooth="yes"/>
      <point x="534.325" y="592.725"/>
      <point x="425.2" y="670.0"/>
      <point x="284.95" y="670.0" type="curve" smooth="yes"/>
      <point x="95.75" y="670.0" type="line"/>
    </contour>
    <contour>
      <point x="205.3" y="317.4" type="line"/>
      <point x="205.3" y="565.975" type="line"/>
      <point x="286.45" y="565.975" type="line" smooth="yes"/>
      <point x="369.8" y="565.975"/>
      <point x="422.25" y="530.675"/>
      <point x="422.25" y="441.525" type="curve" smooth="yes"/>
      <point x="422.25" y="350.85"/>
      <point x="369.8" y="317.4"/>
      <point x="286.45" y="317.4" type="curve" smooth="yes"/>
    </contour>
    <contour>
      <point x="20.0" y="358.75" type="line"/>
      <point x="604.825" y="358.75" type="line"/>
      <point x="604.825" y="420.75" type="line"/>
      <point x="20.0" y="420.75" type="line"/>
    </contour>
    <contour>
      <point x="20.0" y="462.625" type="line"/>
      <point x="604.825" y="462.625" type="line"/>
      <point x="604.825" y="524.625" type="line"/>
      <point x="20.0" y="524.625" type="line"/>
    </contour>
  </outline>
</glyph>
<glyph name="upArrow" format="2">
  <advance width="600.0"/>
  <unicode hex="2191"/>
  <outline>
    <contour>
      <point x="248.54999999999998" y="40.474999999999994" type="line"/>
      <point x="350.4" y="41.0" type="line"/>
      <point x="350.4" y="482.9" type="line"/>
      <point x="357.35" y="485.85" type="line"/>
      <point x="474.125" y="356.125" type="line"/>
      <point x="544.375" y="419.2" type="line"/>
      <point x="300.0" y="672.0" type="line"/>
      <point x="55.625" y="419.2" type="line"/>
      <point x="123.975" y="356.125" type="line"/>
      <point x="241.60000000000002" y="485.325" type="line"/>
      <point x="248.54999999999998" y="482.375" type="line"/>
    </contour>
  </outline>
</glyph>
<glyph name="lessequal" format="2">
  <advance width="596.0"/>
  <unicode hex="2264"/>
  <outline>
    <contour>
      <point x="531.0" y="220.0" type="line"/>
      <point x="530.5250000000001" y="319.725" type="line"/>
      <point x="260.15" y="427.95" type="line"/>
      <point x="260.15" y="431.0" type="line"/>
      <point x="530.5250000000001" y="540.275" type="line"/>
      <point x="531.0" y="640.0" type="line"/>
      <point x="52.0" y="430.0" type="line"/>
    </contour>
    <contour>
      <point x="79.0" y="90.975" type="line"/>
      <point x="531.0" y="90.975" type="line"/>
      <point x="531.0" y="181.02499999999998" type="line"/>
      <point x="79.0" y="181.02499999999998" type="line"/>
    </contour>
  </outline>
</glyph>
<glyph name="whiteCircle" format="2">
  <advance width="786.0"/>
  <unicode hex="25CB"/>
  <outline>
    <contour>
      <point x="394.0" y="-13.0" type="curve" smooth="yes"/>
      <point x="593.0" y="-13.0"/>
      <point x="756.0" y="149.0"/>
      <point x="756.0" y="350.0" type="curve" smooth="yes"/>
      <point x="756.0" y="549.0"/>
      <point x="593.0" y="713.0"/>
      <point x="394.0" y="713.0" type="curve" smooth="yes"/>
      <point x="194.0" y="713.0"/>
      <point x="30.0" y="549.0"/>
      <point x="30.0" y="350.0" type="curve" smooth="yes"/>
      <point x="30.0" y="149.0"/>
      <point x="194.0" y="-13.0"/>
    </contour>
    <contour>
      <point x="394.0" y="51.825" type="curve" smooth="yes"/>
      <point x="232.075" y="51.825"/>
      <point x="100.725" y="189.075"/>
      <point x="100.725" y="350.0" type="curve" smooth="yes"/>
      <point x="100.725" y="506.92499999999995"/>
      <point x="229.075" y="647.225"/>
      <point x="394.0" y="647.225" type="curve" smooth="yes"/>
      <point x="561.45" y="647.225"/>
      <point x="685.275" y="503.925"/>
      <point x="685.275" y="350.0" type="curve" smooth="yes"/>
      <point x="685.275" y="186.075"/>
      <point x="551.925" y="51.825"/>
    </contour>
  </outline>
</glyph>
<glyph name="comma.ss04" format="2">
  <advance width="259.575"/>
  <outline>
    <contour>
      <point x="83.45" y="-165.875" type="line"/>
      <point x="171.3" y="-134.825"/>
      <point x="216.775" y="-68.675"/>
      <point x="216.775" y="8.325" type="curve" smooth="yes"/>
      <point x="216.775" y="81.175"/>
      <point x="177.6" y="129.775"/>
      <point x="122.9" y="129.775" type="curve" smooth="yes"/>
      <point x="84.19999999999999" y="129.775"/>
      <point x="54.925" y="105.125"/>
      <point x="54.925" y="68.375" type="curve" smooth="yes"/>
      <point x="54.925" y="33.15"/>
      <point x="78.725" y="7.875"/>
      <point x="109.94999999999999" y="7.875" type="curve" smooth="yes"/>
      <point x="123.05" y="7.875"/>
      <point x="132.95" y="11.875"/>
      <point x="141.0" y="20.025" type="curve"/>
      <point x="143.52499999999998" y="20.025" type="line"/>
      <point x="145.05" y="15.45"/>
      <point x="145.575" y="10.349999999999998"/>
      <point x="145.575" y="1.299999999999999" type="curve" smooth="yes"/>
      <point x="145.575" y="-53.65"/>
      <point x="107.8" y="-83.9"/>
      <point x="57.925" y="-104.05000000000001" type="curve"/>
    </contour>
  </outline>
</glyph>
<glyph name="f_f_l" format="2">
  <advance width="935.15"/>
  <anchor x="166.875" y="0.0" name="bottom_1"/>
  <anchor x="259.57500000000005" y="700.0" name="top_1"/>
  <anchor x="488.575" y="0.0" name="bottom_2"/>
  <anchor x="581.275" y="700.0" name="top_2"/>
  <anchor x="811.2750000000001" y="0.0" name="bottom_3"/>
  <anchor x="811.2750000000001" y="393.0" name="center_3"/>
  <anchor x="864.1" y="0.0" name="ogonek_3"/>
  <anchor x="811.75" y="700.0" name="top_3"/>
  <anchor x="914.575" y="700.0" name="topright_3"/>
  <anchor x="379.92499999999995" y="0.0" name="caret_1"/>
  <anchor x="701.625" y="0.0" name="caret_2"/>
  <outline>
    <contour>
      <point x="250.7" y="402.32500000000005" type="line"/>
      <point x="854.1" y="402.32500000000005" type="line"/>
      <point x="864.1" y="497.125" type="line"/>
      <point x="250.7" y="497.125" type="line"/>
    </contour>
    <component base="f"/>
    <component base="f" xOffset="321.7"/>
    <component base="l" xOffset="686.925"/>
  </outline>
</glyph>
<glyph name="f_f_l.ss11" format="2">
  <advance width="915.15"/>
  <anchor x="379.45" y="0.0" name="caret_1"/>
  <anchor x="680.25" y="0.0" name="caret_2"/>
  <outline>
    <contour>
      <point x="115.1" y="0.0" type="line"/>
      <point x="221.22500000000002" y="0.0" type="line"/>
      <point x="221.22500000000002" y="514.6" type="line" smooth="yes"/>
      <point x="221.22500000000002" y="572.8"/>
      <point x="256.8" y="615.725"/>
      <point x="325.45" y="615.725" type="curve" smooth="yes"/>
      <point x="390.04999999999995" y="615.725"/>
      <point x="426.775" y="574.2249999999999"/>
      <point x="426.775" y="518.4000000000001" type="curve" smooth="yes"/>
      <point x="426.775" y="0.0" type="line"/>
      <point x="532.9" y="0.0" type="line"/>
      <point x="532.9" y="514.6" type="line" smooth="yes"/>
      <point x="532.9" y="572.8"/>
      <point x="568.475" y="615.725"/>
      <point x="637.125" y="615.725" type="curve" smooth="yes"/>
      <point x="701.725" y="615.725"/>
      <point x="738.45" y="574.2249999999999"/>
      <point x="738.45" y="518.4000000000001" type="curve" smooth="yes"/>
      <point x="738.45" y="0.0" type="line"/>
      <point x="844.575" y="0.0" type="line"/>
      <point x="844.575" y="512.7" type="line" smooth="yes"/>
      <point x="844.575" y="627.9000000000001"/>
      <point x="760.25" y="713.0"/>
      <point x="637.125" y="713.0" type="curve" smooth="yes"/>
      <point x="564.7750000000001" y="713.0"/>
      <point x="488.6" y="670.4749999999999"/>
      <point x="470.8" y="601.1500000000001" type="curve"/>
      <point x="532.9" y="631.85" type="line"/>
      <point x="427.15" y="631.85" type="line"/>
      <point x="489.25" y="600.15" type="line"/>
      <point x="470.92499999999995" y="671.475"/>
      <point x="395.225" y="713.0"/>
      <point x="325.45" y="713.0" type="curve" smooth="yes"/>
      <point x="198.275" y="713.0"/>
      <point x="115.1" y="627.9000000000001"/>
      <point x="115.1" y="514.8" type="curve" smooth="yes"/>
    </contour>
    <contour>
      <point x="18.425" y="402.32500000000005" type="line"/>
      <point x="675.0" y="402.32500000000005" type="line"/>
      <point x="675.0" y="497.125" type="line"/>
      <point x="18.425" y="497.125" type="line"/>
    </contour>
  </outline>
</glyph>
<glyph name="guarani.tf" format="2">
  <advance width="596.0"/>
  <anchor x="321.9" y="653.0" name="_TopCurrency"/>
  <outline>
    <contour>
      <point x="326.475" y="26.725" type="curve" smooth="yes"/>
      <point x="430.85" y="26.725"/>
      <point x="519.125" y="68.05"/>
      <point x="577.525" y="128.725" type="curve"/>
      <point x="577.525" y="380.975" type="line"/>
      <point x="281.92499999999995" y="380.975" type="line"/>
      <point x="281.92499999999995" y="291.125" type="line"/>
      <point x="520.375" y="291.125" type="line"/>
      <point x="477.775" y="312.7" type="line"/>
      <point x="477.775" y="129.875" type="line"/>
      <point x="503.57500000000005" y="195.77499999999998" type="line"/>
      <point x="460.29999999999995" y="148.95"/>
      <point x="399.54999999999995" y="124.275"/>
      <point x="328.425" y="124.275" type="curve" smooth="yes"/>
      <point x="199.55" y="124.275"/>
      <point x="123.5" y="226.875"/>
      <point x="123.5" y="351.625" type="curve" smooth="yes"/>
      <point x="123.5" y="476.375"/>
      <point x="199.1" y="580.5"/>
      <point x="319.575" y="580.5" type="curve" smooth="yes"/>
      <point x="384.225" y="580.5"/>
      <point x="418.95" y="563.4"/>
      <point x="461.475" y="508.57500000000005" type="curve"/>
      <point x="540.0" y="572.15" type="line"/>
      <point x="474.625" y="652.575"/>
      <point x="420.15" y="678.05"/>
      <point x="317.625" y="678.05" type="curve" smooth="yes"/>
      <point x="139.10000000000002" y="678.05"/>
      <point x="15.375" y="529.725"/>
      <point x="15.375" y="351.625" type="curve" smooth="yes"/>
      <point x="15.375" y="174.05"/>
      <point x="141.2" y="26.725"/>
    </contour>
    <component base="verticalTopCurrencycomb" xOffset="321.9"/>
    <component base="verticalBottomCurrencycomb" xOffset="321.9"/>
  </outline>
</glyph>
<glyph name="three.numr" format="2">
  <advance width="328.65"/>
  <outline>
    <contour>
      <point x="157.375" y="308.0" type="curve" smooth="yes"/>
      <point x="232.125" y="308.0"/>
      <point x="288.175" y="351.85"/>
      <point x="288.175" y="428.425" type="curve" smooth="yes"/>
      <point x="288.175" y="474.525"/>
      <point x="263.45000000000005" y="509.475"/>
      <point x="225.175" y="524.325" type="curve"/>
      <point x="225.175" y="525.325" type="line"/>
      <point x="263.925" y="542.325"/>
      <point x="279.7" y="574.225"/>
      <point x="279.7" y="601.0" type="curve" smooth="yes"/>
      <point x="279.7" y="664.475"/>
      <point x="231.225" y="706.475"/>
      <point x="157.375" y="706.475" type="curve" smooth="yes"/>
      <point x="92.375" y="706.475"/>
      <point x="26.15" y="672.95"/>
      <point x="29.575000000000003" y="584.0" type="curve"/>
      <point x="95.4" y="584.0" type="line"/>
      <point x="93.4" y="629.45"/>
      <point x="123.975" y="646.5999999999999"/>
      <point x="156.95" y="646.5999999999999" type="curve" smooth="yes"/>
      <point x="194.95" y="646.5999999999999"/>
      <point x="213.35" y="623.6500000000001"/>
      <point x="213.35" y="593.625" type="curve" smooth="yes"/>
      <point x="213.35" y="557.375"/>
      <point x="181.2" y="542.175"/>
      <point x="144.95" y="542.175" type="curve" smooth="yes"/>
      <point x="102.8" y="542.175" type="line"/>
      <point x="102.8" y="483.825" type="line"/>
      <point x="144.425" y="483.825" type="line" smooth="yes"/>
      <point x="184.72500000000002" y="483.825"/>
      <point x="220.39999999999998" y="468.2"/>
      <point x="220.39999999999998" y="427.9" type="curve" smooth="yes"/>
      <point x="220.39999999999998" y="393.225"/>
      <point x="199.925" y="367.875"/>
      <point x="157.375" y="367.875" type="curve" smooth="yes"/>
      <point x="122.07499999999999" y="367.875"/>
      <point x="92.45" y="389.54999999999995"/>
      <point x="94.44999999999999" y="435.0" type="curve"/>
      <point x="26.674999999999997" y="435.0" type="line"/>
      <point x="23.200000000000003" y="344.625"/>
      <point x="90.94999999999999" y="308.0"/>
    </contour>
  </outline>
</glyph>
